<?xml version="1.0" encoding="UTF-8"?>
<svg width="465px" height="299px" viewBox="0 0 465 299" version="1.1" xmlns="http://www.w3.org/2000/svg" xmlns:xlink="http://www.w3.org/1999/xlink">
    <title>icon-mask</title>
    <g id="Page-1" stroke="none" stroke-width="1" fill="none" fill-rule="evenodd">
        <g id="icon-mask" fill="#040003" fill-rule="nonzero">
            <g id="Group">
                <g id="p1-link" transform="translate(0.070943, 0.000000)">
                    <path d="M37.5090567,0 L248.219057,0 C253.909057,0.72 260.629057,-0.13 266.029057,1.93 C270.619057,3.6 274.489057,7.57 275.719057,12.33 C277.539057,18.79 277.179057,26.35 277.189057,33 C277.199057,105.98 277.179057,178.96 277.199057,251.94 C240.379057,251.94 203.559057,251.93 166.739057,251.94 C163.039057,240.46 160.139057,228.18 152.239057,218.7 C139.949057,203.91 119.989057,196.63 101.019057,199.19 C89.4990567,200.69 78.9590567,205.77 69.9590567,213 C62.5490567,219.16 57.8890567,227.41 54.2390567,236.19 C52.2090567,241.18 50.1090567,246.27 48.7890567,251.5 C38.8590567,251.84 28.8590567,252.21 18.9390567,251.67 C15.0490567,251.39 11.0690567,251.28 7.5890567,249.31 C3.0490567,246.93 0.149056702,242.16 0.0290567022,237.04 C-0.0509432978,233.65 -0.0709432978,229.51 1.4390567,226.44 C5.5190567,222 11.5390567,219.07 16.6590567,215.97 C16.6690567,193.65 16.6690567,171.33 16.6590567,149.01 C16.6490567,145.33 17.0090567,141.67 16.9990567,138 C16.9790567,115 16.9990567,92 16.9890567,69.01 C16.3690567,54.69 16.7790567,40.33 16.6490567,26 C16.5490567,20.99 16.9290567,15.84 18.0290567,10.95 C19.2490567,7.19 22.6090567,4.02 25.9590567,2.08 C29.5990567,-0.01 33.3590567,0.47 37.5090567,0 Z" id="p1"></path>
                </g>
                <g id="p2-link" transform="translate(293.650000, 58.380000)">
                    <path d="M2.88,-1.42108547e-14 C19.71,0.1 36.55,0.01 53.38,0.05 C62.2,0.29 70.96,0.31 79.74,1.36 C80.65,1.74 81.56,2.11 82.48,2.48 C91.19,7.31 95.94,15.43 101.47,23.36 C114.37,42.42 127.51,61.25 141.71,79.34 C146.3,85.33 152.05,92.3 153.63,99.84 C154.3,107.07 154.82,114.36 154.69,121.62 C154.65,134.23 154.74,146.84 154.64,159.45 L155.51,159.15 C156.47,159.85 157.44,160.54 158.4,161.23 L159.33,161.26 C161.1,162.38 162.9,163.44 164.72,164.47 C166.4,165.83 168.06,167.21 169.76,168.53 C171.7,174.54 170.56,180.22 168.63,186.03 C167.1,188.09 165.54,190.12 163.86,192.07 C157.02,193.53 150.23,193.25 143.29,193.14 C139.14,192.93 134.87,192.93 130.78,192.21 C129.04,188.14 127.94,183.83 126.26,179.73 C125.6,178.06 124.94,176.38 124.29,174.7 C123.06,172 121.73,169.37 120.34,166.75 C114.48,156.85 105.41,150.25 95.27,145.2 C88.78,142.4 82.08,140.31 74.99,139.8 C64.78,138.99 55.46,141.92 46.36,146.24 C34.56,152.46 24.46,160.98 19.45,173.67 C18.78,175.35 18.11,177.03 17.46,178.71 C16.78,180.39 16.11,182.06 15.44,183.74 C14.34,186.32 13.21,188.83 12.43,191.54 C8.73,193.48 4.07,193.81 0,194.54 C0.07,175.22 -0.04,155.89 0.05,136.57 C0.77,126.26 0.14,115.96 0.57,105.64 C0.61,79.62 0.67,53.63 0.4,27.62 C0.13,18.3 1.41,9.18 2.88,-1.42108547e-14 Z M24.34,22.01 C23.06,30.55 21.84,38.96 22.1,47.62 C21.83,59.25 22.87,70.77 23.71,82.36 C54.28,82.94 83.97,84.21 114.47,80.93 C105.69,66.71 96.68,52.67 87.24,38.88 C83.28,32.95 79.02,27.22 75.12,21.26 C58.9,20.92 40.41,19.25 24.34,22.01 Z" id="p2"></path>
                </g>
                <g id="p4-link" transform="translate(67.032065, 215.944757)">
                    <path d="M56.3979355,1.90524299 C57.3079355,2.22524299 58.2279355,2.53524299 59.1479355,2.83524299 C68.6979355,7.16524299 76.1679355,15.145243 80.2079355,24.785243 C83.9279355,36.495243 83.5979355,47.815243 79.1979355,59.265243 C77.6379355,62.055243 75.9479355,64.755243 74.2479355,67.455243 C69.7879355,72.575243 64.1879355,76.265243 58.1779355,79.305243 C47.1479355,83.475243 35.7979355,83.395243 24.7579355,79.305243 C21.2479355,77.595243 17.9679355,75.565243 14.7379355,73.385243 C9.86793547,69.435243 6.69793547,64.345243 3.46793547,59.075243 L3.70793547,57.905243 L2.81793547,57.525243 C2.49793547,56.505243 2.16793547,55.495243 1.82793547,54.485243 C-1.23206453,43.995243 -0.362064533,32.875243 3.77793547,22.815243 C7.83793547,15.045243 13.1979355,8.35524299 21.1079355,4.25524299 L21.6579355,3.41524299 L23.1279355,3.82524299 L23.4579355,2.83524299 C33.8679355,-0.554757014 45.8379355,-0.954757014 56.3979355,1.90524299 Z M29.9879355,23.015243 C26.6379355,26.035243 23.6879355,29.105243 22.1879355,33.475243 C19.7179355,39.675243 20.6279355,46.865243 24.8279355,52.095243 C26.8479355,54.595243 29.3979355,56.315243 32.0379355,58.085243 C35.1979355,59.125243 38.6279355,60.275243 41.9879355,60.315243 C44.3379355,60.195243 46.6779355,59.625243 48.9779355,59.185243 C52.4979355,57.405243 55.7179355,55.605243 57.9079355,52.195243 C62.1579355,44.825243 62.3579355,35.535243 57.5579355,28.345243 C55.5079355,24.815243 52.3079355,22.985243 48.9579355,20.905243 C46.0079355,20.135243 42.9979355,19.095243 39.9179355,19.455243 C36.2379355,19.765243 33.1879355,21.335243 29.9879355,23.015243 Z" id="p4"></path>
                </g>
                <g id="p5-link" transform="translate(323.218748, 215.586330)">
                    <path d="M40.6212517,0.0936699206 C46.7512517,-0.346330079 52.4412517,0.833669921 58.3712517,2.17366992 L58.5212517,2.54366992 C60.8312517,3.61366992 63.0612517,4.78366992 65.2612517,6.05366992 C67.9112517,8.67366992 70.8112517,11.1436699 73.2512517,13.9436699 C75.5612517,16.5736699 77.2712517,19.5436699 79.3312517,22.4336699 L78.9412517,23.7836699 L79.9412517,23.8136699 C80.9512517,26.9936699 82.0912517,30.0836699 82.8112517,33.3436699 C84.3712517,41.3136699 83.4512517,49.2536699 81.0312517,56.9436699 L80.6612517,57.2436699 C77.3012517,64.9736699 72.3512517,70.9136699 65.3012517,75.5536699 C64.1112517,76.3236699 62.9312517,77.1236699 61.7712517,77.9436699 L60.6112517,77.6836699 L60.3112517,78.5836699 C56.8112517,79.6736699 53.3212517,81.2036699 49.7112517,81.8336699 C41.0912517,82.9636699 32.4912517,82.6436699 24.2612517,79.6436699 L23.9312517,79.3536699 C22.0112517,78.3436699 20.1112517,77.3136699 18.2312517,76.2336699 L17.3512517,75.7836699 C12.4712517,71.9736699 8.98125168,68.0736699 5.55125168,62.9436699 C4.54125168,60.8436699 3.52125168,58.7436699 2.52125168,56.6436699 C-1.30874832,44.7236699 -0.908748318,31.6336699 4.64125168,20.3136699 C5.30125168,19.1536699 5.96125168,18.0036699 6.62125168,16.8536699 C10.8812517,10.5036699 15.6512517,6.50366992 22.4612517,3.08366992 C28.3812517,0.963669921 34.4212517,0.663669921 40.6212517,0.0936699206 Z M34.7012517,21.7436699 L33.4312517,21.5836699 L33.3612517,23.0436699 L31.7812517,22.7736699 C28.1312517,25.7036699 24.6212517,28.4236699 22.6912517,32.8536699 L22.3812517,32.9036699 C20.7212517,38.6036699 20.6912517,42.2136699 22.3612517,47.9236699 L22.6812517,47.9736699 C25.8112517,54.3936699 32.3612517,59.8836699 39.6512517,60.5236699 C43.7012517,61.1236699 47.2712517,59.8236699 50.8312517,58.0536699 L51.6912517,58.0736699 C54.7112517,55.7736699 57.1612517,53.3336699 59.4612517,50.3136699 L59.4012517,49.5136699 C63.0212517,43.1236699 61.9312517,36.1736699 59.1512517,29.7136699 C58.0212517,28.2736699 56.9212517,26.7936699 55.8112517,25.3236699 C53.8112517,23.9836699 51.8012517,22.6336699 49.7812517,21.3136699 C46.8112517,20.6936699 43.6312517,19.7236699 40.6312517,20.0136699 C38.6112517,20.2936699 36.6112517,21.0436699 34.7012517,21.7436699 Z" id="p5"></path>
                </g>
            </g>
        </g>
    </g>
</svg>