<?xml version="1.0" encoding="UTF-8"?>
<svg width="153px" height="153px" viewBox="0 0 153 153" version="1.1" xmlns="http://www.w3.org/2000/svg" xmlns:xlink="http://www.w3.org/1999/xlink">
    <title>Group 2</title>
    <defs>
        <rect id="path-1" x="0" y="0" width="153" height="153" rx="35"></rect>
    </defs>
    <g id="Page-1" stroke="none" stroke-width="1" fill="none" fill-rule="evenodd">
        <g id="Group-2">
            <mask id="mask-2" fill="white">
                <use xlink:href="#path-1"></use>
            </mask>
            <g id="Rectangle"></g>
            <g id="dispatch" mask="url(#mask-2)">
                <g transform="translate(-2.000000, -2.000000)" id="Group">
                    <g>
                        <g id="p0-link" fill="#000000" fill-rule="nonzero" stroke="#FDFEFE">
                            <path d="M0,0 L27.94,0 C20.76,1.34 14.05,3.43 8.92,8.93 C2.79,15.01 0.98,23.67 0.54,32 C0.46,62.32 0.59,92.68 0.54,123 C0.77,132.05 2.7,141.11 9.37,147.67 C15.07,152.62 22.38,155.6 29.99,155.33 C60.66,155.27 91.33,155.35 122,155.27 C126.64,155.21 131.77,155.53 136.26,154.31 C142.32,152.47 147.89,148.75 151.4,143.41 C153.25,140.55 154.63,137.35 156,134.23 L156,157 L0,157 L0,0 Z" id="p0"></path>
                        </g>
                        <g id="p1-link" transform="translate(0.513279, 0.000000)" fill="#000000" fill-rule="nonzero" stroke="#4FB16A">
                            <path d="M27.4267213,0 L131.136721,0 C134.126721,1.2 137.146721,2.25 140.166721,3.34 C144.446721,5.29 148.066721,8.88 150.906721,12.55 C152.786721,15.54 154.026721,18.98 155.486721,22.19 L155.486721,134.23 C154.116721,137.35 152.736721,140.55 150.886721,143.41 C147.376721,148.75 141.806721,152.47 135.746721,154.31 C131.256721,155.53 126.126721,155.21 121.486721,155.27 C90.8167213,155.35 60.1467213,155.27 29.4767213,155.33 C21.8667213,155.6 14.5567213,152.62 8.85672135,147.67 C2.18672135,141.11 0.256721346,132.05 0.0267213459,123 C0.0767213459,92.68 -0.0532786541,62.32 0.0267213459,32 C0.466721346,23.67 2.27672135,15.01 8.40672135,8.93 C13.5367213,3.43 20.2467213,1.34 27.4267213,0 Z M26.7167213,94.12 C25.4867213,94.89 24.1367213,95.6 23.0567213,96.57 C22.2367213,98.92 22.6267213,101.4 25.2167213,102.31 C28.0967213,102.83 31.1767213,102.54 34.1067213,102.56 C35.6767213,98.43 36.7567213,94.66 40.7867213,92.23 C46.5267213,88.36 54.4367213,89.24 59.0267213,94.46 C61.0467213,96.74 61.7667213,99.8 62.6867213,102.63 C71.4467213,102.65 80.2067213,102.64 88.9667213,102.66 C89.0567213,85.44 88.9267213,68.22 89.0167213,51 C88.8667213,48.94 89.2867213,46.15 88.2067213,44.33 C86.8067213,42.26 84.7067213,42.56 82.5067213,42.43 C65.4067213,42.46 48.5667213,42.45 31.4667213,42.42 C29.3867213,42.36 28.2467213,42.93 27.1067213,44.68 C26.5667213,46.69 26.6967213,48.93 26.6667213,51 C26.8567213,65.38 26.6567213,79.74 26.7167213,94.12 Z M93.1267213,102.83 L95.6767213,102.32 C96.8267213,100.12 97.4567213,97.45 98.8967213,95.44 C101.046721,92.68 104.276721,90.74 107.666721,89.94 C112.206721,88.94 117.176721,90.89 120.376721,94.13 C122.526721,96.26 123.496721,99.57 124.486721,102.36 C126.956721,102.43 129.616721,102.77 132.036721,102.26 C133.586721,101.33 134.156721,98.65 133.676721,96.99 C132.856721,95.8 131.196721,95.24 129.996721,94.49 C129.876721,89.98 130.206721,85.41 129.816721,80.91 C129.726721,78.91 128.116721,77.04 126.966721,75.48 C123.106721,70.61 119.616721,65.48 116.126721,60.35 C114.676721,58.35 113.256721,56.59 110.546721,56.56 C104.976721,56.28 99.3767213,56.5 93.8067213,56.39 C93.4667213,58.59 93.1367213,60.77 93.1567213,63 C93.4567213,76.28 93.0067213,89.55 93.1267213,102.83 Z M45.0067213,94.68 C39.2867213,96.67 36.9867213,104.22 40.2667213,109.22 C43.1667213,113.97 49.9467213,115.14 54.3967213,111.89 C59.2467213,108.83 59.7567213,100.71 55.6167213,96.88 C52.9867213,93.96 48.5667213,93.68 45.0067213,94.68 Z M106.866721,94.47 C99.9367213,96.17 98.1367213,105.75 102.826721,110.65 C106.916721,115.19 114.606721,114.46 118.166721,109.65 C121.346721,105.36 120.296721,99.56 116.326721,96.18 C113.726721,93.69 110.166721,93.96 106.866721,94.47 Z" id="p1"></path>
                        </g>
                        <g id="p2-link" transform="translate(131.650000, 0.000000)" fill="#000000" fill-rule="nonzero" stroke="#FDFEFE">
                            <path d="M2.84217094e-14,0 L24.35,0 L24.35,22.19 C22.89,18.98 21.65,15.54 19.77,12.55 C16.93,8.88 13.31,5.29 9.03,3.34 C6.01,2.25 2.99,1.2 2.84217094e-14,0 Z" id="p2"></path>
                        </g>
                        <g id="p3-link" transform="translate(23.185418, 42.415772)" fill="#000000" fill-rule="nonzero" stroke="#FDFEFE">
                            <path d="M8.79458194,0.00422810371 C25.8945819,0.0342281037 42.7345819,0.0442281037 59.8345819,0.0142281037 C62.0345819,0.144228104 64.1345819,-0.155771896 65.5345819,1.9142281 C66.6145819,3.7342281 66.1945819,6.5242281 66.3445819,8.5842281 C66.2545819,25.8042281 66.3845819,43.0242281 66.2945819,60.2442281 C57.5345819,60.2242281 48.7745819,60.2342281 40.0145819,60.2142281 C39.0945819,57.3842281 38.3745819,54.3242281 36.3545819,52.0442281 C31.7645819,46.8242281 23.8545819,45.9442281 18.1145819,49.8142281 C14.0845819,52.2442281 13.0045819,56.0142281 11.4345819,60.1442281 C8.50458194,60.1242281 5.42458194,60.4142281 2.54458194,59.8942281 C-0.045418055,58.9842281 -0.435418055,56.5042281 0.384581945,54.1542281 C1.46458194,53.1842281 2.81458194,52.4742281 4.04458194,51.7042281 C3.98458194,37.3242281 4.18458194,22.9642281 3.99458194,8.5842281 C4.02458194,6.5142281 3.89458194,4.2742281 4.43458194,2.2642281 C5.57458194,0.514228104 6.71458194,-0.0557718963 8.79458194,0.00422810371 Z" id="p3"></path>
                        </g>
                        <g id="p4-link" transform="translate(93.619134, 56.390000)" fill="#000000" fill-rule="nonzero" stroke="#FDFEFE">
                            <path d="M0.700865869,0 C6.27086587,0.11 11.8708659,-0.11 17.4408659,0.17 C20.1508659,0.2 21.5708659,1.96 23.0208659,3.96 C26.5108659,9.09 30.0008659,14.22 33.8608659,19.09 C35.0108659,20.65 36.6208659,22.52 36.7108659,24.52 C37.1008659,29.02 36.7708659,33.59 36.8908659,38.1 C38.0908659,38.85 39.7508659,39.41 40.5708659,40.6 C41.0508659,42.26 40.4808659,44.94 38.9308659,45.87 C36.5108659,46.38 33.8508659,46.04 31.3808659,45.97 C30.3908659,43.18 29.4208659,39.87 27.2708659,37.74 C24.0708659,34.5 19.1008659,32.55 14.5608659,33.55 C11.1708659,34.35 7.94086587,36.29 5.79086587,39.05 C4.35086587,41.06 3.72086587,43.73 2.57086587,45.93 L0.0208658691,46.44 C-0.0991341309,33.16 0.350865869,19.89 0.0508658691,6.61 C0.0308658691,4.38 0.360865869,2.2 0.700865869,0 Z M5.55086587,19.68 C12.8008659,19.82 20.2008659,20.15 27.4108659,19.33 C24.4308659,14.41 21.2508659,9.63 17.9008659,4.95 C13.8908659,4.84 9.74086587,4.57 5.75086587,5.08 C4.77086587,9.75 5.19086587,14.94 5.55086587,19.68 Z" id="p4"></path>
                        </g>
                        <g id="p5-link" transform="translate(98.764209, 61.169687)" fill="#000000" fill-rule="nonzero" stroke="#4FB16A">
                            <path d="M0.605791462,0.300313208 C4.59579146,-0.209686792 8.74579146,0.060313208 12.7557915,0.170313208 C16.1057915,4.85031321 19.2857915,9.63031321 22.2657915,14.5503132 C15.0557915,15.3703132 7.65579146,15.0403132 0.405791462,14.9003132 C0.0457914625,10.1603132 -0.374208538,4.97031321 0.605791462,0.300313208 Z" id="p5"></path>
                        </g>
                        <g id="p6-link" transform="translate(39.273846, 94.157028)" fill="#000000" fill-rule="nonzero" stroke="#FDFEFE">
                            <path d="M6.24615415,0.522971513 C9.80615415,-0.477028487 14.2261542,-0.197028487 16.8561542,2.72297151 C20.9961542,6.55297151 20.4861542,14.6729715 15.6361542,17.7329715 C11.1861542,20.9829715 4.40615415,19.8129715 1.50615415,15.0629715 C-1.77384585,10.0629715 0.526154151,2.51297151 6.24615415,0.522971513 Z M7.82615415,4.99297151 C4.75615415,6.52297151 3.69615415,10.7229715 6.44615415,13.0829715 C9.11615415,15.4929715 13.9661542,14.5429715 14.4761542,10.6829715 C15.3861542,6.79297151 11.5561542,3.24297151 7.82615415,4.99297151 Z" id="p6"></path>
                        </g>
                        <g id="p7-link" transform="translate(100.729976, 94.130012)" fill="#000000" fill-rule="nonzero" stroke="#FDFEFE">
                            <path d="M6.65002371,0.339988201 C9.95002371,-0.170011799 13.5100237,-0.440011799 16.1100237,2.0499882 C20.0800237,5.4299882 21.1300237,11.2299882 17.9500237,15.5199882 C14.3900237,20.3299882 6.70002371,21.0599882 2.61002371,16.5199882 C-2.07997629,11.6199882 -0.279976283,2.0399882 6.65002371,0.339988201 Z M7.64002371,5.2599882 C4.38002371,6.9399882 3.88002371,11.0099882 6.78002371,13.3199882 C10.2300237,16.1699882 15.3900237,13.1699882 14.6700237,8.8099882 C14.3500237,5.4399882 10.6000237,3.5099882 7.64002371,5.2599882 Z" id="p7"></path>
                        </g>
                        <g id="p8-link" transform="translate(44.133576, 98.691232)" fill="#000000" fill-rule="nonzero" stroke="#4FB16A">
                            <path d="M2.96642426,0.458767966 C6.69642426,-1.29123204 10.5264243,2.25876796 9.61642426,6.14876796 C9.10642426,10.008768 4.25642426,10.958768 1.58642426,8.54876796 C-1.16357574,6.18876796 -0.103575733,1.98876796 2.96642426,0.458767966 Z" id="p8"></path>
                        </g>
                        <g id="p9-link" transform="translate(105.601957, 98.731898)" fill="#000000" fill-rule="nonzero" stroke="#4FB16A">
                            <path d="M2.76804265,0.658102119 C5.72804265,-1.09189788 9.47804265,0.838102119 9.79804265,4.20810212 C10.5180427,8.56810212 5.35804265,11.5681021 1.90804265,8.71810212 C-0.99195735,6.40810212 -0.49195735,2.33810212 2.76804265,0.658102119 Z" id="p9"></path>
                        </g>
                    </g>
                    <g>
                        <g id="p0-link" fill="#FDFEFE" fill-rule="nonzero">
                            <path d="M0,0 L27.94,0 C20.76,1.34 14.05,3.43 8.92,8.93 C2.79,15.01 0.98,23.67 0.54,32 C0.46,62.32 0.59,92.68 0.54,123 C0.77,132.05 2.7,141.11 9.37,147.67 C15.07,152.62 22.38,155.6 29.99,155.33 C60.66,155.27 91.33,155.35 122,155.27 C126.64,155.21 131.77,155.53 136.26,154.31 C142.32,152.47 147.89,148.75 151.4,143.41 C153.25,140.55 154.63,137.35 156,134.23 L156,157 L0,157 L0,0 Z" id="p0"></path>
                        </g>
                        <g id="p1-link" transform="translate(0.513279, 0.000000)" fill="#4FB16A" fill-rule="nonzero">
                            <path d="M27.4267213,0 L131.136721,0 C134.126721,1.2 137.146721,2.25 140.166721,3.34 C144.446721,5.29 148.066721,8.88 150.906721,12.55 C152.786721,15.54 154.026721,18.98 155.486721,22.19 L155.486721,134.23 C154.116721,137.35 152.736721,140.55 150.886721,143.41 C147.376721,148.75 141.806721,152.47 135.746721,154.31 C131.256721,155.53 126.126721,155.21 121.486721,155.27 C90.8167213,155.35 60.1467213,155.27 29.4767213,155.33 C21.8667213,155.6 14.5567213,152.62 8.85672135,147.67 C2.18672135,141.11 0.256721346,132.05 0.0267213459,123 C0.0767213459,92.68 -0.0532786541,62.32 0.0267213459,32 C0.466721346,23.67 2.27672135,15.01 8.40672135,8.93 C13.5367213,3.43 20.2467213,1.34 27.4267213,0 Z M26.7167213,94.12 C25.4867213,94.89 24.1367213,95.6 23.0567213,96.57 C22.2367213,98.92 22.6267213,101.4 25.2167213,102.31 C28.0967213,102.83 31.1767213,102.54 34.1067213,102.56 C35.6767213,98.43 36.7567213,94.66 40.7867213,92.23 C46.5267213,88.36 54.4367213,89.24 59.0267213,94.46 C61.0467213,96.74 61.7667213,99.8 62.6867213,102.63 C71.4467213,102.65 80.2067213,102.64 88.9667213,102.66 C89.0567213,85.44 88.9267213,68.22 89.0167213,51 C88.8667213,48.94 89.2867213,46.15 88.2067213,44.33 C86.8067213,42.26 84.7067213,42.56 82.5067213,42.43 C65.4067213,42.46 48.5667213,42.45 31.4667213,42.42 C29.3867213,42.36 28.2467213,42.93 27.1067213,44.68 C26.5667213,46.69 26.6967213,48.93 26.6667213,51 C26.8567213,65.38 26.6567213,79.74 26.7167213,94.12 Z M93.1267213,102.83 L95.6767213,102.32 C96.8267213,100.12 97.4567213,97.45 98.8967213,95.44 C101.046721,92.68 104.276721,90.74 107.666721,89.94 C112.206721,88.94 117.176721,90.89 120.376721,94.13 C122.526721,96.26 123.496721,99.57 124.486721,102.36 C126.956721,102.43 129.616721,102.77 132.036721,102.26 C133.586721,101.33 134.156721,98.65 133.676721,96.99 C132.856721,95.8 131.196721,95.24 129.996721,94.49 C129.876721,89.98 130.206721,85.41 129.816721,80.91 C129.726721,78.91 128.116721,77.04 126.966721,75.48 C123.106721,70.61 119.616721,65.48 116.126721,60.35 C114.676721,58.35 113.256721,56.59 110.546721,56.56 C104.976721,56.28 99.3767213,56.5 93.8067213,56.39 C93.4667213,58.59 93.1367213,60.77 93.1567213,63 C93.4567213,76.28 93.0067213,89.55 93.1267213,102.83 Z M45.0067213,94.68 C39.2867213,96.67 36.9867213,104.22 40.2667213,109.22 C43.1667213,113.97 49.9467213,115.14 54.3967213,111.89 C59.2467213,108.83 59.7567213,100.71 55.6167213,96.88 C52.9867213,93.96 48.5667213,93.68 45.0067213,94.68 Z M106.866721,94.47 C99.9367213,96.17 98.1367213,105.75 102.826721,110.65 C106.916721,115.19 114.606721,114.46 118.166721,109.65 C121.346721,105.36 120.296721,99.56 116.326721,96.18 C113.726721,93.69 110.166721,93.96 106.866721,94.47 Z" id="p1"></path>
                        </g>
                        <g id="p2-link" transform="translate(131.650000, 0.000000)" fill="#FDFEFE" fill-rule="nonzero">
                            <path d="M2.84217094e-14,0 L24.35,0 L24.35,22.19 C22.89,18.98 21.65,15.54 19.77,12.55 C16.93,8.88 13.31,5.29 9.03,3.34 C6.01,2.25 2.99,1.2 2.84217094e-14,0 Z" id="p2"></path>
                        </g>
                        <g id="p3-link" transform="translate(23.185418, 42.415772)" fill="#FDFEFE" fill-rule="nonzero">
                            <path d="M8.79458194,0.00422810371 C25.8945819,0.0342281037 42.7345819,0.0442281037 59.8345819,0.0142281037 C62.0345819,0.144228104 64.1345819,-0.155771896 65.5345819,1.9142281 C66.6145819,3.7342281 66.1945819,6.5242281 66.3445819,8.5842281 C66.2545819,25.8042281 66.3845819,43.0242281 66.2945819,60.2442281 C57.5345819,60.2242281 48.7745819,60.2342281 40.0145819,60.2142281 C39.0945819,57.3842281 38.3745819,54.3242281 36.3545819,52.0442281 C31.7645819,46.8242281 23.8545819,45.9442281 18.1145819,49.8142281 C14.0845819,52.2442281 13.0045819,56.0142281 11.4345819,60.1442281 C8.50458194,60.1242281 5.42458194,60.4142281 2.54458194,59.8942281 C-0.045418055,58.9842281 -0.435418055,56.5042281 0.384581945,54.1542281 C1.46458194,53.1842281 2.81458194,52.4742281 4.04458194,51.7042281 C3.98458194,37.3242281 4.18458194,22.9642281 3.99458194,8.5842281 C4.02458194,6.5142281 3.89458194,4.2742281 4.43458194,2.2642281 C5.57458194,0.514228104 6.71458194,-0.0557718963 8.79458194,0.00422810371 Z" id="p3"></path>
                        </g>
                        <g id="p4-link" transform="translate(93.619134, 56.390000)" fill="#FDFEFE" fill-rule="nonzero">
                            <path d="M0.700865869,0 C6.27086587,0.11 11.8708659,-0.11 17.4408659,0.17 C20.1508659,0.2 21.5708659,1.96 23.0208659,3.96 C26.5108659,9.09 30.0008659,14.22 33.8608659,19.09 C35.0108659,20.65 36.6208659,22.52 36.7108659,24.52 C37.1008659,29.02 36.7708659,33.59 36.8908659,38.1 C38.0908659,38.85 39.7508659,39.41 40.5708659,40.6 C41.0508659,42.26 40.4808659,44.94 38.9308659,45.87 C36.5108659,46.38 33.8508659,46.04 31.3808659,45.97 C30.3908659,43.18 29.4208659,39.87 27.2708659,37.74 C24.0708659,34.5 19.1008659,32.55 14.5608659,33.55 C11.1708659,34.35 7.94086587,36.29 5.79086587,39.05 C4.35086587,41.06 3.72086587,43.73 2.57086587,45.93 L0.0208658691,46.44 C-0.0991341309,33.16 0.350865869,19.89 0.0508658691,6.61 C0.0308658691,4.38 0.360865869,2.2 0.700865869,0 Z M5.55086587,19.68 C12.8008659,19.82 20.2008659,20.15 27.4108659,19.33 C24.4308659,14.41 21.2508659,9.63 17.9008659,4.95 C13.8908659,4.84 9.74086587,4.57 5.75086587,5.08 C4.77086587,9.75 5.19086587,14.94 5.55086587,19.68 Z" id="p4"></path>
                        </g>
                        <g id="p5-link" transform="translate(98.764209, 61.169687)" fill="#4FB16A" fill-rule="nonzero">
                            <path d="M0.605791462,0.300313208 C4.59579146,-0.209686792 8.74579146,0.060313208 12.7557915,0.170313208 C16.1057915,4.85031321 19.2857915,9.63031321 22.2657915,14.5503132 C15.0557915,15.3703132 7.65579146,15.0403132 0.405791462,14.9003132 C0.0457914625,10.1603132 -0.374208538,4.97031321 0.605791462,0.300313208 Z" id="p5"></path>
                        </g>
                        <g id="p6-link" transform="translate(39.273846, 94.157028)" fill="#FDFEFE" fill-rule="nonzero">
                            <path d="M6.24615415,0.522971513 C9.80615415,-0.477028487 14.2261542,-0.197028487 16.8561542,2.72297151 C20.9961542,6.55297151 20.4861542,14.6729715 15.6361542,17.7329715 C11.1861542,20.9829715 4.40615415,19.8129715 1.50615415,15.0629715 C-1.77384585,10.0629715 0.526154151,2.51297151 6.24615415,0.522971513 Z M7.82615415,4.99297151 C4.75615415,6.52297151 3.69615415,10.7229715 6.44615415,13.0829715 C9.11615415,15.4929715 13.9661542,14.5429715 14.4761542,10.6829715 C15.3861542,6.79297151 11.5561542,3.24297151 7.82615415,4.99297151 Z" id="p6"></path>
                        </g>
                        <g id="p7-link" transform="translate(100.729976, 94.130012)" fill="#FDFEFE" fill-rule="nonzero">
                            <path d="M6.65002371,0.339988201 C9.95002371,-0.170011799 13.5100237,-0.440011799 16.1100237,2.0499882 C20.0800237,5.4299882 21.1300237,11.2299882 17.9500237,15.5199882 C14.3900237,20.3299882 6.70002371,21.0599882 2.61002371,16.5199882 C-2.07997629,11.6199882 -0.279976283,2.0399882 6.65002371,0.339988201 Z M7.64002371,5.2599882 C4.38002371,6.9399882 3.88002371,11.0099882 6.78002371,13.3199882 C10.2300237,16.1699882 15.3900237,13.1699882 14.6700237,8.8099882 C14.3500237,5.4399882 10.6000237,3.5099882 7.64002371,5.2599882 Z" id="p7"></path>
                        </g>
                        <g id="p8-link" transform="translate(44.133576, 98.691232)" fill="#4FB16A" fill-rule="nonzero">
                            <path d="M2.96642426,0.458767966 C6.69642426,-1.29123204 10.5264243,2.25876796 9.61642426,6.14876796 C9.10642426,10.008768 4.25642426,10.958768 1.58642426,8.54876796 C-1.16357574,6.18876796 -0.103575733,1.98876796 2.96642426,0.458767966 Z" id="p8"></path>
                        </g>
                        <g id="p9-link" transform="translate(105.601957, 98.731898)" fill="#4FB16A" fill-rule="nonzero">
                            <path d="M2.76804265,0.658102119 C5.72804265,-1.09189788 9.47804265,0.838102119 9.79804265,4.20810212 C10.5180427,8.56810212 5.35804265,11.5681021 1.90804265,8.71810212 C-0.99195735,6.40810212 -0.49195735,2.33810212 2.76804265,0.658102119 Z" id="p9"></path>
                        </g>
                    </g>
                </g>
            </g>
        </g>
    </g>
</svg>